<mxfile host="app.diagrams.net" modified="2023-06-09T17:34:26.870Z" agent="Mozilla/5.0 (Windows NT 10.0; Win64; x64) AppleWebKit/537.36 (KHTML, like Gecko) Chrome/114.0.0.0 Safari/537.36 Edg/114.0.1823.41" etag="MSBmYPhVtwhKppkDf_Y_" version="21.3.7" type="github">
  <diagram name="第 1 页" id="4fWyXJP6VSfAbYg68hve">
    <mxGraphModel dx="3337" dy="1124" grid="1" gridSize="10" guides="1" tooltips="1" connect="1" arrows="1" fold="1" page="1" pageScale="1" pageWidth="1654" pageHeight="2336" math="0" shadow="0">
      <root>
        <mxCell id="0" />
        <mxCell id="1" parent="0" />
        <mxCell id="KO39rShbz4jRroj4lXh8-1" value="" style="rounded=0;whiteSpace=wrap;html=1;fillColor=#f8cecc;strokeColor=#b85450;" parent="1" vertex="1">
          <mxGeometry x="700" y="90" width="530" height="430" as="geometry" />
        </mxCell>
        <mxCell id="AFss-TPShZiB_wvnAR8w-2" value="&lt;font style=&quot;font-size: 18px;&quot;&gt;ApplicationContext context = new ClassPathXmlApplicationContext(&quot;applicationContext.xml&quot;)&lt;/font&gt;" style="rounded=0;whiteSpace=wrap;html=1;" vertex="1" parent="1">
          <mxGeometry x="-130" y="100" width="490" height="90" as="geometry" />
        </mxCell>
      </root>
    </mxGraphModel>
  </diagram>
</mxfile>
